<?xml version="1.0" encoding="utf-8"?>
<!-- Generator: Adobe Illustrator 21.1.0, SVG Export Plug-In . SVG Version: 6.00 Build 0)  -->
<svg version="1.1" xmlns="http://www.w3.org/2000/svg" xmlns:xlink="http://www.w3.org/1999/xlink" x="0px" y="0px"
	 viewBox="0 0 864 864" style="enable-background:new 0 0 864 864;" xml:space="preserve">
<style type="text/css">
	.st0{fill:#FFFFFF;}
	.st1{fill:#5F8AC7;}
	.st2{fill:#E64D3C;}
	.st3{fill:#C03B2B;}
	.st4{fill:#F7EC21;}
	.st5{fill:#E6E018;}
	.st6{fill:#3C97D3;}
	.st7{fill:#2A81BA;}
	.st8{fill:#4FBA6F;}
	.st9{fill:#28AE60;}
	.st10{fill:#5B86C4;}
	.st11{fill:#D22027;}
	.st12{fill:#B0D9EE;}
</style>
<g id="Layer_1">
	<text transform="matrix(1 0 0 1 1024.689 411.7745)" style="fill:#ABADB0; font-family:'Helvetica-Bold'; font-size:27.9998px;">weekend class</text>
	<path class="st0" d="M838,858.6H26.2c-11.6,0-21-9.4-21-21v-811c0-11.6,9.4-21,21-21H838c11.6,0,21,9.4,21,21v811
		C859,849.3,849.6,858.6,838,858.6z"/>
</g>
<g id="Layer_4">
	<text transform="matrix(1 0 0 1 -576.9322 -298.5877)"><tspan x="0" y="0" style="fill:#5A87C6; font-family:'HelveticaNeue-Bold'; font-size:99.8307px;">Fai</tspan><tspan x="120.1" y="0" style="fill:#5A87C6; font-family:'HelveticaNeue-Bold'; font-size:99.8307px; letter-spacing:1;">r</tspan><tspan x="154.7" y="0" style="fill:#5A87C6; font-family:'Helvetica-Light'; font-size:99.8307px;">way</tspan></text>
</g>
<g id="Layer_3">
	<g>
		<path class="st1" d="M-432.9,121.3c2.7-3,5.4-6,8.1-9c11-12.1,21.8-24.4,32.9-36.5c2.4-2.6,4.9-5.1,7.4-7.7
			c8.4-8.6,16.8-17.6,20-29.4c1.2-4.3,0.9-9.1-0.6-13.4c-2.3-6.5-8.4-12.5-13.7-16.6c-5.7-4.4-12.6-7.5-19.9-7
			c-6.3,0.4-12,3.4-16.4,7.8c0,0-2.2,2.2-5.8,5.8c-17.3,17.5-67.5,68.1-67.5,68.1c4.3,16.5,25.7,19,29.4,19.4
			c21-0.5,23.1,21.6,23.1,21.6C-435.9,124-433.3,121.7-432.9,121.3z"/>
		<path class="st2" d="M-531.4,45.5c3.8,1.4,7.6,2.8,11.4,4.2c15.4,5.6,30.8,11,46.2,16.8c3.3,1.2,6.6,2.6,10,4
			c11.2,4.5,22.6,8.9,34.7,7.4c4.5-0.6,8.8-2.6,12.2-5.6c5.1-4.6,8.4-12.5,10.2-19c1.9-6.9,2.2-14.5-1-21.1
			c-2.7-5.6-7.7-9.9-13.4-12.3c0,0-2.9-1.2-7.6-3.2c-22.7-9.5-88.5-36.9-88.5-36.9c-13.7,10.1-8,31-6.9,34.6
			c8.4,19.2-11.3,29.6-11.3,29.6C-535,43.7-531.9,45.3-531.4,45.5z"/>
		<path class="st3" d="M-433.9,43.2c-2.9,6.3-6.2,13.7-11,18.7c-5,5.2-11.9,7.8-19,8.4c11.2,4.5,22.6,8.9,34.7,7.4
			c4.5-0.6,8.8-2.6,12.2-5.6c5.1-4.6,8.4-12.5,10.2-19c1.9-6.9,2.2-14.5-1-21.1c-2.7-5.6-7.7-9.9-13.4-12.3c0,0-2.9-1.2-7.6-3.2
			c0.1,1.1,0.2,2.3,0.2,3.4C-428.4,28.2-430.6,36-433.9,43.2z"/>
		<path class="st4" d="M-509.8-71.4c0.6,4,1.2,8,1.9,11.9c2.6,16.2,5.3,32.3,7.8,48.5c0.5,3.5,0.9,7,1.4,10.6
			c1.4,12,3.2,24.1,10.4,34c2.7,3.6,6.5,6.5,10.8,7.9c6.5,2.2,15,1.3,21.6-0.3c7-1.7,13.7-5.1,18-11.1c3.6-5.1,4.9-11.5,4.2-17.7
			c0,0-0.3-3.1-0.9-8.2c-2.7-24.4-10.7-95.3-10.7-95.3c-15.5-7-30.9,8.1-33.6,10.7c-12.7,16.7-31.4,4.5-31.4,4.5
			C-509.9-75.4-509.8-72-509.8-71.4z"/>
		<path class="st5" d="M-460.4,12.7c-6.9,0.6-14.9,1.3-21.7-0.6c-7-1.9-12.6-6.6-16.6-12.5c1.4,12,3.2,24.1,10.4,34
			c2.7,3.6,6.5,6.5,10.8,7.9c6.5,2.2,15,1.3,21.6-0.3c7-1.7,13.7-5.1,18-11.1c3.6-5.1,4.9-11.5,4.2-17.7c0,0-0.3-3.1-0.9-8.2
			c-0.9,0.7-1.9,1.3-2.9,1.8C-444.6,10.2-452.5,12-460.4,12.7z"/>
		<path class="st6" d="M-361.7-89.1c-3.8,1.5-7.5,2.9-11.3,4.4c-15.3,5.9-30.5,12.1-45.8,17.9c-3.3,1.3-6.7,2.4-10.1,3.6
			c-11.4,3.9-22.9,8.2-31,17.3c-3,3.4-4.9,7.8-5.5,12.2c-0.8,6.8,1.9,14.9,4.8,21c3.1,6.5,7.9,12.3,14.7,15.2
			c5.8,2.4,12.3,2.3,18.2,0.4c0,0,2.9-1,7.8-2.6c23.3-7.9,90.8-30.7,90.8-30.7c3.6-16.6-14.4-28.5-17.6-30.5
			c-19-8.9-11-29.7-11-29.7C-357.8-90.2-361.2-89.3-361.7-89.1z"/>
		<path class="st7" d="M-433.5-23.1c-2-6.7-4.4-14.3-4.1-21.3c0.3-7.2,3.8-13.7,8.7-18.9c-11.4,3.9-22.9,8.2-31,17.3
			c-3,3.4-4.9,7.8-5.5,12.2c-0.8,6.8,1.9,14.9,4.8,21c3.1,6.5,7.9,12.3,14.7,15.2c5.8,2.4,12.3,2.3,18.2,0.4c0,0,2.9-1,7.8-2.6
			c-0.8-0.8-1.6-1.6-2.4-2.5C-427.6-8.2-431.1-15.5-433.5-23.1z"/>
		<path class="st8" d="M-308.5,34c-2.5-3.1-5.1-6.3-7.6-9.4c-10.3-12.7-20.8-25.3-31-38.1c-2.2-2.7-4.3-5.6-6.5-8.5
			c-7.2-9.6-14.8-19.3-26-24.2c-4.1-1.8-8.9-2.3-13.3-1.5c-6.7,1.3-13.6,6.4-18.5,11c-5.2,4.9-9.3,11.3-10,18.6
			c-0.5,6.2,1.5,12.4,5.2,17.4c0,0,1.8,2.5,4.9,6.6c14.6,19.8,57,77.1,57,77.1c16.9-1.7,22.7-22.5,23.7-26.1
			c2.7-20.8,24.9-19.6,24.9-19.6C-306.3,37.3-308.1,34.4-308.5,34z"/>
		<path class="st9" d="M-393.3-14.2c5.7-4,12.3-8.6,19.1-10.4c7-1.9,14.2-0.6,20.6,2.5c-7.2-9.6-14.8-19.3-26-24.2
			c-4.1-1.8-8.9-2.3-13.3-1.5c-6.7,1.3-13.6,6.4-18.5,11c-5.2,4.9-9.3,11.3-10,18.6c-0.5,6.2,1.5,12.4,5.2,17.4c0,0,1.8,2.5,4.9,6.6
			c0.5-1,1-2.1,1.6-3.1C-405.7-4-399.9-9.6-393.3-14.2z"/>
		<path class="st10" d="M-398.3,30.1c4.8,5,10.3,10.8,13.2,17.3c2.9,6.6,2.7,14,0.7,20.8c8.4-8.6,16.8-17.6,20-29.4
			c1.2-4.3,0.9-9.1-0.6-13.4c-2.3-6.5-8.4-12.5-13.7-16.6c-5.7-4.4-12.6-7.5-19.9-7c-6.3,0.4-12,3.4-16.4,7.8c0,0-2.2,2.2-5.8,5.8
			c1.1,0.3,2.2,0.7,3.3,1.1C-410.2,19.4-403.8,24.4-398.3,30.1z"/>
		<circle class="st11" cx="-422.5" cy="10.1" r="22.2"/>
	</g>
</g>
<g id="Layer_2">
	<g>
		<path class="st5" d="M-450,574.2h-218.7v-201c0-11.1,9-20,20-20H-450V574.2z"/>
		<path class="st3" d="M-450,793.7h-218.7v201c0,11.1,9,20,20,20H-450V793.7z"/>
		<rect x="-668.7" y="576.2" class="st2" width="218.6" height="215.1"/>
		<rect x="-448.1" y="353.2" class="st9" width="218.6" height="437.8"/>
		<rect x="-448" y="793.7" class="st10" width="218.6" height="220.8"/>
		<path class="st9" d="M-23.6,1014.3h-203V576.5H-8.1v422.3C-8.1,1007.3-15,1014.3-23.6,1014.3z"/>
	</g>
	<path class="st5" d="M1221.2,768.7H926.9V505.7c0-11.1,9-20,20-20h274.3V768.7z"/>
	<path class="st3" d="M1221.2,1049.9H926.9V1313c0,11.1,9,20,20,20h274.3V1049.9z"/>
	<rect x="926.9" y="771.3" class="st2" width="294.2" height="275.5"/>
	<rect x="1223.8" y="485.6" class="st9" width="294.2" height="560.9"/>
	<rect x="1223.9" y="1049.9" class="st10" width="294.2" height="282.8"/>
	<path class="st10" d="M1800.4,1332.5h-278.6V771.6H1816v545.3C1816,1325.5,1809,1332.5,1800.4,1332.5z"/>
	
		<rect x="1252.5" y="-416" transform="matrix(6.123234e-17 -1 1 6.123234e-17 1385.1276 1399.9561)" class="st12" width="280" height="846.9"/>
	<path class="st12" d="M1816-400.7v264.4h-560.9v-280h545.3C1809-416.2,1816-409.3,1816-400.7z"/>
	<path class="st12" d="M1816,415.5V151h-560.9v280h545.3C1809,431,1816,424.1,1816,415.5z"/>
	<g>
		<rect x="292.3" y="572.4" class="st3" width="279.3" height="282.8"/>
		<path class="st2" d="M838.8,855H575V294.1h279.3v545.3C854.4,848,847.4,855,838.8,855z"/>
		
			<rect x="292.6" y="9.6" transform="matrix(-1 -1.224647e-16 1.224647e-16 -1 864.5477 301.9597)" class="st7" width="279.3" height="282.8"/>
		<path class="st6" d="M25.4,9.8h263.8v560.9H9.8V25.4C9.8,16.8,16.8,9.8,25.4,9.8z"/>
	</g>
	<g>
		<path class="st1" d="M1029.5,423.3c2.7-3,5.4-6,8.1-9c11-12.1,21.8-24.4,32.9-36.5c2.4-2.6,4.9-5.1,7.4-7.7
			c8.4-8.6,16.8-17.6,20-29.4c1.2-4.3,0.9-9.1-0.6-13.4c-2.3-6.5-8.4-12.5-13.7-16.6c-5.7-4.4-12.6-7.5-19.9-7
			c-6.3,0.4-12,3.4-16.4,7.8c0,0-2.2,2.2-5.8,5.8c-17.3,17.5-67.5,68.1-67.5,68.1c4.3,16.5,25.7,19,29.4,19.4
			c21-0.5,23.1,21.6,23.1,21.6C1026.5,426,1029.1,423.8,1029.5,423.3z"/>
		<path class="st2" d="M931,347.5c3.8,1.4,7.6,2.8,11.4,4.2c15.4,5.6,30.8,11,46.2,16.8c3.3,1.2,6.6,2.6,10,4
			c11.2,4.5,22.6,8.9,34.7,7.4c4.5-0.6,8.8-2.6,12.2-5.6c5.1-4.6,8.4-12.5,10.2-19c1.9-6.9,2.2-14.5-1-21.1
			c-2.7-5.6-7.7-9.9-13.4-12.3c0,0-2.9-1.2-7.6-3.2c-22.7-9.5-88.5-36.9-88.5-36.9c-13.7,10.1-8,31-6.9,34.6
			c8.4,19.2-11.3,29.6-11.3,29.6C927.4,345.7,930.5,347.3,931,347.5z"/>
		<path class="st3" d="M1028.5,345.2c-2.9,6.3-6.2,13.7-11,18.7c-5,5.2-11.9,7.8-19,8.4c11.2,4.5,22.6,8.9,34.7,7.4
			c4.5-0.6,8.8-2.6,12.2-5.6c5.1-4.6,8.4-12.5,10.2-19c1.9-6.9,2.2-14.5-1-21.1c-2.7-5.6-7.7-9.9-13.4-12.3c0,0-2.9-1.2-7.6-3.2
			c0.1,1.1,0.2,2.3,0.2,3.4C1034,330.2,1031.8,338,1028.5,345.2z"/>
		<path class="st4" d="M952.7,230.6c0.6,4,1.2,8,1.9,11.9c2.6,16.2,5.3,32.3,7.8,48.5c0.5,3.5,0.9,7,1.4,10.6
			c1.4,12,3.2,24.1,10.4,34c2.7,3.6,6.5,6.5,10.8,7.9c6.5,2.2,15,1.3,21.6-0.3c7-1.7,13.7-5.1,18-11.1c3.6-5.1,4.9-11.5,4.2-17.7
			c0,0-0.3-3.1-0.9-8.2c-2.7-24.4-10.7-95.3-10.7-95.3c-15.5-7-30.9,8.1-33.6,10.7c-12.7,16.7-31.4,4.5-31.4,4.5
			C952.5,226.6,952.6,230,952.7,230.6z"/>
		<path class="st5" d="M1002,314.7c-6.9,0.6-14.9,1.3-21.7-0.6c-7-1.9-12.6-6.6-16.6-12.5c1.4,12,3.2,24.1,10.4,34
			c2.7,3.6,6.5,6.5,10.8,7.9c6.5,2.2,15,1.3,21.6-0.3c7-1.7,13.7-5.1,18-11.1c3.6-5.1,4.9-11.5,4.2-17.7c0,0-0.3-3.1-0.9-8.2
			c-0.9,0.7-1.9,1.3-2.9,1.8C1017.8,312.2,1009.9,314.1,1002,314.7z"/>
		<path class="st6" d="M1100.7,212.9c-3.8,1.5-7.5,2.9-11.3,4.4c-15.3,5.9-30.5,12.1-45.8,17.9c-3.3,1.3-6.7,2.4-10.1,3.6
			c-11.4,3.9-22.9,8.2-31,17.3c-3,3.4-4.9,7.8-5.5,12.2c-0.8,6.8,1.9,14.9,4.8,21c3.1,6.5,7.9,12.3,14.7,15.2
			c5.8,2.4,12.3,2.3,18.2,0.4c0,0,2.9-1,7.8-2.6c23.3-7.9,90.8-30.7,90.8-30.7c3.6-16.6-14.4-28.5-17.6-30.5
			c-19-8.9-11-29.7-11-29.7C1104.6,211.9,1101.3,212.7,1100.7,212.9z"/>
		<path class="st7" d="M1029,278.9c-2-6.7-4.4-14.3-4.1-21.3c0.3-7.2,3.8-13.7,8.7-18.9c-11.4,3.9-22.9,8.2-31,17.3
			c-3,3.4-4.9,7.8-5.5,12.2c-0.8,6.8,1.9,14.9,4.8,21c3.1,6.5,7.9,12.3,14.7,15.2c5.8,2.4,12.3,2.3,18.2,0.4c0,0,2.9-1,7.8-2.6
			c-0.8-0.8-1.6-1.6-2.4-2.5C1034.8,293.8,1031.3,286.5,1029,278.9z"/>
		<path class="st8" d="M1153.9,336c-2.5-3.1-5.1-6.3-7.6-9.4c-10.3-12.7-20.8-25.3-31-38.1c-2.2-2.7-4.3-5.6-6.5-8.5
			c-7.2-9.6-14.8-19.3-26-24.2c-4.1-1.8-8.9-2.3-13.3-1.5c-6.7,1.3-13.6,6.4-18.5,11c-5.2,4.9-9.3,11.3-10,18.6
			c-0.5,6.2,1.5,12.4,5.2,17.4c0,0,1.8,2.5,4.9,6.6c14.6,19.8,57,77.1,57,77.1c16.9-1.7,22.7-22.5,23.7-26.1
			c2.7-20.8,24.9-19.6,24.9-19.6C1156.1,339.4,1154.3,336.4,1153.9,336z"/>
		<path class="st9" d="M1069.1,287.9c5.7-4,12.3-8.6,19.1-10.4c7-1.9,14.2-0.6,20.6,2.5c-7.2-9.6-14.8-19.3-26-24.2
			c-4.1-1.8-8.9-2.3-13.3-1.5c-6.7,1.3-13.6,6.4-18.5,11c-5.2,4.9-9.3,11.3-10,18.6c-0.5,6.2,1.5,12.4,5.2,17.4c0,0,1.8,2.5,4.9,6.6
			c0.5-1,1-2.1,1.6-3.1C1056.7,298,1062.6,292.4,1069.1,287.9z"/>
		<path class="st10" d="M1064.1,332.1c4.8,5,10.3,10.8,13.2,17.3c2.9,6.6,2.7,14,0.7,20.8c8.4-8.6,16.8-17.6,20-29.4
			c1.2-4.3,0.9-9.1-0.6-13.4c-2.3-6.5-8.4-12.5-13.7-16.6c-5.7-4.4-12.6-7.5-19.9-7c-6.3,0.4-12,3.4-16.4,7.8c0,0-2.2,2.2-5.8,5.8
			c1.1,0.3,2.2,0.7,3.3,1.1C1052.2,321.4,1058.6,326.4,1064.1,332.1z"/>
		<circle class="st11" cx="1039.9" cy="312.1" r="22.2"/>
	</g>
</g>
</svg>
